<svg width="2268" height="2688" viewBox="0 0 2268 2688" fill="none" xmlns="http://www.w3.org/2000/svg">
<g clip-path="url(#clip0_105_7881)">
<rect x="504" y="168" width="84" height="84" fill="#AB9191"/>
<rect x="1680" y="168" width="84" height="84" fill="#AB9191"/>
<rect x="504" y="252" width="84" height="84" fill="#AB9191"/>
<rect x="1680" y="252" width="84" height="84" fill="#AB9191"/>
<rect x="588" y="252" width="84" height="84" fill="#AB9191"/>
<rect x="588" y="1260" width="84" height="84" fill="#AB9191"/>
<rect x="588" y="336" width="84" height="84" fill="#AB9191"/>
<rect x="588" y="1344" width="84" height="84" fill="#AB9191"/>
<rect x="588" y="420" width="84" height="84" fill="#AB9191"/>
<rect x="1428" y="1344" width="84" height="84" fill="#AB9191"/>
<rect x="1428" y="420" width="84" height="84" fill="#AB9191"/>
<rect x="756" y="168" width="84" height="84" fill="#AB9191"/>
<rect x="840" y="168" width="84" height="84" fill="#AB9191"/>
<rect x="924" y="168" width="84" height="84" fill="#AB9191"/>
<rect x="1260" y="168" width="84" height="84" fill="#AB9191"/>
<rect x="1008" y="168" width="84" height="84" fill="#AB9191"/>
<rect x="1680" y="1344" width="84" height="84" fill="#AB9191"/>
<rect x="1680" y="420" width="84" height="84" fill="#AB9191"/>
<rect x="504" y="1344" width="84" height="84" fill="#AB9191"/>
<rect x="504" y="420" width="84" height="84" fill="#AB9191"/>
<rect x="1680" y="1512" width="84" height="84" fill="#AB9191"/>
<rect x="1680" y="1848" width="84" height="84" fill="#AB9191"/>
<rect x="1680" y="588" width="84" height="84" fill="#AB9191"/>
<rect x="504" y="1512" width="84" height="84" fill="#AB9191"/>
<rect x="420" y="1512" width="84" height="84" fill="#AB9191"/>
<rect x="1764" y="1512" width="84" height="84" fill="#AB9191"/>
<rect x="504" y="1848" width="84" height="84" fill="#AB9191"/>
<rect x="420" y="1848" width="84" height="84" fill="#AB9191"/>
<rect x="1764" y="1848" width="84" height="84" fill="#AB9191"/>
<rect x="504" y="588" width="84" height="84" fill="#AB9191"/>
<rect x="1680" y="1680" width="84" height="84" fill="#AB9191"/>
<rect x="1680" y="2016" width="84" height="84" fill="#AB9191"/>
<rect x="1680" y="756" width="84" height="84" fill="#AB9191"/>
<rect x="504" y="1680" width="84" height="84" fill="#AB9191"/>
<rect x="420" y="1680" width="84" height="84" fill="#AB9191"/>
<rect x="1764" y="1680" width="84" height="84" fill="#AB9191"/>
<rect x="504" y="2016" width="84" height="84" fill="#AB9191"/>
<rect x="504" y="756" width="84" height="84" fill="#AB9191"/>
<rect x="1344" y="168" width="84" height="84" fill="#AB9191"/>
<rect x="1092" y="168" width="84" height="84" fill="#AB9191"/>
<rect x="1428" y="168" width="84" height="84" fill="#AB9191"/>
<rect x="1176" y="168" width="84" height="84" fill="#AB9191"/>
<rect x="1512" y="168" width="84" height="84" fill="#AB9191"/>
<rect x="672" y="168" width="84" height="84" fill="#AB9191"/>
<rect x="672" y="252" width="84" height="84" fill="#AB9191"/>
<rect x="672" y="1260" width="84" height="84" fill="#AB9191"/>
<rect x="672" y="1176" width="84" height="84" fill="#AB9191"/>
<rect x="672" y="336" width="84" height="84" fill="#AB9191"/>
<rect x="672" y="1344" width="84" height="84" fill="#AB9191"/>
<rect x="672" y="420" width="84" height="84" fill="#AB9191"/>
<rect x="1512" y="1344" width="84" height="84" fill="#AB9191"/>
<rect x="1512" y="420" width="84" height="84" fill="#AB9191"/>
<rect x="756" y="252" width="84" height="84" fill="#AB9191"/>
<rect x="756" y="1260" width="84" height="84" fill="#AB9191"/>
<rect x="756" y="1176" width="84" height="84" fill="#AB9191"/>
<rect x="756" y="336" width="84" height="84" fill="#AB9191"/>
<rect x="756" y="1344" width="84" height="84" fill="#AB9191"/>
<rect x="756" y="420" width="84" height="84" fill="#AB9191"/>
<rect x="1596" y="1344" width="84" height="84" fill="#AB9191"/>
<rect x="1596" y="420" width="84" height="84" fill="#AB9191"/>
<rect x="840" y="252" width="84" height="84" fill="#AB9191"/>
<rect x="840" y="1260" width="84" height="84" fill="#AB9191"/>
<rect x="840" y="1176" width="84" height="84" fill="#AB9191"/>
<rect x="840" y="336" width="84" height="84" fill="#AB9191"/>
<rect x="924" y="252" width="84" height="84" fill="#AB9191"/>
<rect x="924" y="1260" width="84" height="84" fill="#AB9191"/>
<rect x="924" y="1176" width="84" height="84" fill="#AB9191"/>
<rect x="924" y="336" width="84" height="84" fill="#AB9191"/>
<rect x="924" y="1344" width="84" height="84" fill="#AB9191"/>
<rect x="924" y="420" width="84" height="84" fill="#AB9191"/>
<rect x="504" y="1428" width="84" height="84" fill="#AB9191"/>
<rect x="504" y="1764" width="84" height="84" fill="#AB9191"/>
<rect x="420" y="1764" width="84" height="84" fill="#AB9191"/>
<rect x="1764" y="1764" width="84" height="84" fill="#AB9191"/>
<rect x="504" y="504" width="84" height="84" fill="#AB9191"/>
<rect x="1260" y="252" width="84" height="84" fill="#AB9191"/>
<rect x="1260" y="1260" width="84" height="84" fill="#AB9191"/>
<rect x="1260" y="1176" width="84" height="84" fill="#AB9191"/>
<rect x="1260" y="336" width="84" height="84" fill="#AB9191"/>
<rect x="1260" y="1344" width="84" height="84" fill="#AB9191"/>
<rect x="1260" y="420" width="84" height="84" fill="#AB9191"/>
<rect x="1008" y="252" width="84" height="84" fill="#AB9191"/>
<rect x="1008" y="1260" width="84" height="84" fill="#AB9191"/>
<rect x="1008" y="1176" width="84" height="84" fill="#AB9191"/>
<rect x="1008" y="336" width="84" height="84" fill="#AB9191"/>
<rect x="1008" y="1344" width="84" height="84" fill="#AB9191"/>
<rect x="1008" y="420" width="84" height="84" fill="#AB9191"/>
<rect x="588" y="1428" width="84" height="84" fill="#AB9191"/>
<rect x="588" y="1764" width="84" height="84" fill="#AB9191"/>
<rect x="588" y="504" width="84" height="84" fill="#AB9191"/>
<rect x="1344" y="1428" width="84" height="84" fill="#AB9191"/>
<rect x="1344" y="1764" width="84" height="84" fill="#AB9191"/>
<rect x="1344" y="504" width="84" height="84" fill="#AB9191"/>
<rect x="1680" y="1428" width="84" height="84" fill="#AB9191"/>
<rect x="1680" y="1764" width="84" height="84" fill="#AB9191"/>
<rect x="1680" y="504" width="84" height="84" fill="#AB9191"/>
<rect x="504" y="1428" width="84" height="84" fill="#AB9191"/>
<rect x="504" y="1764" width="84" height="84" fill="#AB9191"/>
<rect x="420" y="1764" width="84" height="84" fill="#AB9191"/>
<rect x="1764" y="1764" width="84" height="84" fill="#AB9191"/>
<rect x="504" y="504" width="84" height="84" fill="#AB9191"/>
<rect x="1680" y="1596" width="84" height="84" fill="#AB9191"/>
<rect x="1680" y="1932" width="84" height="84" fill="#AB9191"/>
<rect x="1680" y="672" width="84" height="84" fill="#AB9191"/>
<rect x="504" y="1596" width="84" height="84" fill="#AB9191"/>
<rect x="420" y="1596" width="84" height="84" fill="#AB9191"/>
<rect x="1764" y="1596" width="84" height="84" fill="#AB9191"/>
<rect x="504" y="1932" width="84" height="84" fill="#AB9191"/>
<rect x="420" y="1932" width="84" height="84" fill="#AB9191"/>
<rect x="1764" y="1932" width="84" height="84" fill="#AB9191"/>
<rect x="504" y="672" width="84" height="84" fill="#AB9191"/>
<rect x="1680" y="2100" width="84" height="84" fill="#AB9191"/>
<rect x="1680" y="840" width="84" height="84" fill="#AB9191"/>
<rect x="504" y="2100" width="84" height="84" fill="#AB9191"/>
<rect x="504" y="840" width="84" height="84" fill="#AB9191"/>
<rect x="588" y="2184" width="84" height="84" fill="#AB9191"/>
<rect x="588" y="924" width="84" height="84" fill="#AB9191"/>
<rect x="1344" y="2184" width="84" height="84" fill="#AB9191"/>
<rect x="1344" y="924" width="84" height="84" fill="#AB9191"/>
<rect x="1260" y="2268" width="84" height="84" fill="#AB9191"/>
<rect x="1260" y="1008" width="84" height="84" fill="#AB9191"/>
<rect x="1260" y="2352" width="84" height="84" fill="#AB9191"/>
<rect x="1260" y="1092" width="84" height="84" fill="#AB9191"/>
<rect x="1008" y="2268" width="84" height="84" fill="#AB9191"/>
<rect x="588" y="2520" width="84" height="84" fill="#AB9191"/>
<rect x="1512" y="2520" width="84" height="84" fill="#AB9191"/>
<rect x="1848" y="1344" width="84" height="84" fill="#AB9191"/>
<rect x="252" y="1344" width="84" height="84" fill="#AB9191"/>
<rect x="2100.5" y="1428.5" width="83" height="83" fill="#AB9191" stroke="black"/>
<rect x="168" y="1344" width="84" height="84" fill="#AB9191"/>
<rect x="1008" y="1008" width="84" height="84" fill="#AB9191"/>
<rect x="1008" y="2352" width="84" height="84" fill="#AB9191"/>
<rect x="588" y="2604" width="84" height="84" fill="#AB9191"/>
<rect x="1512" y="2604" width="84" height="84" fill="#AB9191"/>
<rect x="1848" y="1428" width="84" height="84" fill="#AB9191"/>
<rect x="252" y="1428" width="84" height="84" fill="#AB9191"/>
<rect x="1848" y="1260" width="84" height="84" fill="#AB9191"/>
<rect x="252" y="1260" width="84" height="84" fill="#AB9191"/>
<rect x="1008" y="1092" width="84" height="84" fill="#AB9191"/>
<rect x="672" y="2268" width="84" height="84" fill="#AB9191"/>
<rect x="672" y="1008" width="84" height="84" fill="#AB9191"/>
<rect x="1344" y="252" width="84" height="84" fill="#AB9191"/>
<rect x="1344" y="1260" width="84" height="84" fill="#AB9191"/>
<rect x="1344" y="1176" width="84" height="84" fill="#AB9191"/>
<rect x="1344" y="336" width="84" height="84" fill="#AB9191"/>
<rect x="1092" y="252" width="84" height="84" fill="#AB9191"/>
<rect x="1092" y="1260" width="84" height="84" fill="#AB9191"/>
<rect x="1092" y="1176" width="84" height="84" fill="#AB9191"/>
<rect x="1092" y="336" width="84" height="84" fill="#AB9191"/>
<rect x="1092" y="1344" width="84" height="84" fill="#AB9191"/>
<rect x="1092" y="420" width="84" height="84" fill="#AB9191"/>
<rect x="672" y="1428" width="84" height="84" fill="#AB9191"/>
<rect x="672" y="1764" width="84" height="84" fill="#AB9191"/>
<rect x="672" y="504" width="84" height="84" fill="#AB9191"/>
<rect x="588" y="1512" width="84" height="84" fill="#AB9191"/>
<rect x="588" y="1848" width="84" height="84" fill="#AB9191"/>
<rect x="588" y="588" width="84" height="84" fill="#AB9191"/>
<rect x="588" y="1596" width="84" height="84" fill="#AB9191"/>
<rect x="588" y="1932" width="84" height="84" fill="#AB9191"/>
<rect x="588" y="672" width="84" height="84" fill="#AB9191"/>
<rect x="588" y="1680" width="84" height="84" fill="#AB9191"/>
<rect x="588" y="2016" width="84" height="84" fill="#AB9191"/>
<rect x="588" y="756" width="84" height="84" fill="#AB9191"/>
<rect x="1428" y="1680" width="84" height="84" fill="#AB9191"/>
<rect x="1428" y="2016" width="84" height="84" fill="#AB9191"/>
<rect x="1428" y="756" width="84" height="84" fill="#AB9191"/>
<rect x="1428" y="1596" width="84" height="84" fill="#AB9191"/>
<rect x="1428" y="1932" width="84" height="84" fill="#AB9191"/>
<rect x="1428" y="672" width="84" height="84" fill="#BD1A8F"/>
<rect x="1428" y="1512" width="84" height="84" fill="#AB9191"/>
<rect x="1428" y="1848" width="84" height="84" fill="#AB9191"/>
<rect x="1428" y="588" width="84" height="84" fill="#BD1A8F"/>
<rect x="1428" y="2100" width="84" height="84" fill="#AB9191"/>
<rect x="1428" y="840" width="84" height="84" fill="#AB9191"/>
<rect x="588" y="2100" width="84" height="84" fill="#AB9191"/>
<rect x="588" y="840" width="84" height="84" fill="#AB9191"/>
<rect x="672" y="2184" width="84" height="84" fill="#AB9191"/>
<rect x="672" y="924" width="84" height="84" fill="#AB9191"/>
<rect x="1428" y="2184" width="84" height="84" fill="#AB9191"/>
<rect x="1428" y="924" width="84" height="84" fill="#AB9191"/>
<rect x="1344" y="2268" width="84" height="84" fill="#AB9191"/>
<rect x="1344" y="1008" width="84" height="84" fill="#AB9191"/>
<rect x="1344" y="2352" width="84" height="84" fill="#AB9191"/>
<rect x="1344" y="1092" width="84" height="84" fill="#AB9191"/>
<rect x="1092" y="2268" width="84" height="84" fill="#AB9191"/>
<rect x="672" y="2520" width="84" height="84" fill="#AB9191"/>
<rect x="1596" y="2520" width="84" height="84" fill="#AB9191"/>
<rect x="1932" y="1344" width="84" height="84" fill="#AB9191"/>
<rect x="336" y="1344" width="84" height="84" fill="#AB9191"/>
<rect x="2016" y="1344" width="84" height="84" fill="#BD1A8F"/>
<rect x="2100.5" y="1344.5" width="83" height="83" fill="#AB9191" stroke="black"/>
<rect x="84" y="1344" width="84" height="84" fill="#AB9191"/>
<rect x="1092" y="1008" width="84" height="84" fill="#AB9191"/>
<rect x="1092" y="2352" width="84" height="84" fill="#AB9191"/>
<rect x="672" y="2604" width="84" height="84" fill="#AB9191"/>
<rect x="1596" y="2604" width="84" height="84" fill="#AB9191"/>
<rect x="1932" y="1428" width="84" height="84" fill="#AB9191"/>
<rect x="336" y="1428" width="84" height="84" fill="#AB9191"/>
<rect x="1932" y="1260" width="84" height="84" fill="#AB9191"/>
<rect x="336" y="1260" width="84" height="84" fill="#AB9191"/>
<rect x="1092" y="1092" width="84" height="84" fill="#AB9191"/>
<rect x="756" y="2268" width="84" height="84" fill="#AB9191"/>
<rect x="756" y="1008" width="84" height="84" fill="#AB9191"/>
<rect x="1428" y="1428" width="84" height="84" fill="#AB9191"/>
<rect x="1428" y="1764" width="84" height="84" fill="#AB9191"/>
<rect x="1428" y="504" width="84" height="84" fill="#AB9191"/>
<rect x="1428" y="252" width="84" height="84" fill="#AB9191"/>
<rect x="1428" y="1260" width="84" height="84" fill="#AB9191"/>
<rect x="1428" y="1176" width="84" height="84" fill="#AB9191"/>
<rect x="1428" y="336" width="84" height="84" fill="#AB9191"/>
<rect x="1176" y="252" width="84" height="84" fill="#AB9191"/>
<rect x="1176" y="1260" width="84" height="84" fill="#AB9191"/>
<rect x="1176" y="1176" width="84" height="84" fill="#AB9191"/>
<rect x="1176" y="336" width="84" height="84" fill="#AB9191"/>
<rect x="1176" y="1344" width="84" height="84" fill="#AB9191"/>
<rect x="1176" y="420" width="84" height="84" fill="#AB9191"/>
<rect x="756" y="1428" width="84" height="84" fill="#AB9191"/>
<rect x="756" y="1764" width="84" height="84" fill="#AB9191"/>
<rect x="756" y="504" width="84" height="84" fill="#AB9191"/>
<rect x="672" y="1512" width="84" height="84" fill="#AB9191"/>
<rect x="672" y="1848" width="84" height="84" fill="#AB9191"/>
<rect x="672" y="588" width="84" height="84" fill="#006DB9"/>
<rect x="672" y="1596" width="84" height="84" fill="#AB9191"/>
<rect x="672" y="1932" width="84" height="84" fill="#AB9191"/>
<rect x="672" y="672" width="84" height="84" fill="#006DB9"/>
<rect x="672" y="1680" width="84" height="84" fill="#AB9191"/>
<rect x="672" y="2016" width="84" height="84" fill="#AB9191"/>
<rect x="672" y="756" width="84" height="84" fill="#AB9191"/>
<rect x="1512" y="1680" width="84" height="84" fill="#AB9191"/>
<rect x="1512" y="2016" width="84" height="84" fill="#AB9191"/>
<rect x="1512" y="756" width="84" height="84" fill="#AB9191"/>
<rect x="1512" y="1596" width="84" height="84" fill="#AB9191"/>
<rect x="1512" y="1932" width="84" height="84" fill="#AB9191"/>
<rect x="1512" y="672" width="84" height="84" fill="#BD1A8F"/>
<rect x="1512" y="1512" width="84" height="84" fill="#AB9191"/>
<rect x="1512" y="1848" width="84" height="84" fill="#AB9191"/>
<rect x="1512" y="588" width="84" height="84" fill="#BD1A8F"/>
<rect x="1512" y="2100" width="84" height="84" fill="#AB9191"/>
<rect x="1512" y="840" width="84" height="84" fill="#AB9191"/>
<rect x="672" y="2100" width="84" height="84" fill="#AB9191"/>
<rect x="672" y="840" width="84" height="84" fill="#AB9191"/>
<rect x="756" y="2184" width="84" height="84" fill="#AB9191"/>
<rect x="756" y="924" width="84" height="84" fill="#AB9191"/>
<rect x="1512" y="2184" width="84" height="84" fill="#AB9191"/>
<rect x="1512" y="924" width="84" height="84" fill="#AB9191"/>
<rect x="1428" y="2268" width="84" height="84" fill="#AB9191"/>
<rect x="1428" y="1008" width="84" height="84" fill="#AB9191"/>
<rect x="1176" y="2268" width="84" height="84" fill="#AB9191"/>
<rect x="756" y="2520" width="84" height="84" fill="#AB9191"/>
<rect x="1680" y="2520" width="84" height="84" fill="#AB9191"/>
<rect x="1932" y="1176" width="84" height="84" fill="#AB9191"/>
<rect x="2100.5" y="1344.5" width="83" height="83" fill="#AB9191" stroke="black"/>
<rect x="168" y="1344" width="84" height="84" fill="#006DB9"/>
<rect x="2184.5" y="1344.5" width="83" height="83" fill="#AB9191" stroke="black"/>
<rect y="1344" width="84" height="84" fill="#AB9191"/>
<rect x="1176" y="1008" width="84" height="84" fill="#AB9191"/>
<rect x="1176" y="2352" width="84" height="84" fill="#AB9191"/>
<rect x="756" y="2604" width="84" height="84" fill="#AB9191"/>
<rect x="1680" y="2604" width="84" height="84" fill="#AB9191"/>
<rect x="84" y="1428" width="84" height="84" fill="#AB9191"/>
<rect x="1176" y="1092" width="84" height="84" fill="#AB9191"/>
<rect x="840" y="2268" width="84" height="84" fill="#AB9191"/>
<rect x="840" y="1008" width="84" height="84" fill="#AB9191"/>
<rect x="840" y="2352" width="84" height="84" fill="#AB9191"/>
<rect x="840" y="1092" width="84" height="84" fill="#AB9191"/>
<rect x="1512" y="1428" width="84" height="84" fill="#AB9191"/>
<rect x="1512" y="1764" width="84" height="84" fill="#AB9191"/>
<rect x="1512" y="504" width="84" height="84" fill="#AB9191"/>
<rect x="840" y="1428" width="84" height="84" fill="#AB9191"/>
<rect x="840" y="1764" width="84" height="84" fill="#AB9191"/>
<rect x="840" y="504" width="84" height="84" fill="#AB9191"/>
<rect x="756" y="1512" width="84" height="84" fill="#AB9191"/>
<rect x="756" y="1848" width="84" height="84" fill="#AB9191"/>
<rect x="756" y="588" width="84" height="84" fill="#006DB9"/>
<rect x="756" y="1596" width="84" height="84" fill="#AB9191"/>
<rect x="756" y="1932" width="84" height="84" fill="#AB9191"/>
<rect x="756" y="672" width="84" height="84" fill="#006DB9"/>
<rect x="756" y="1680" width="84" height="84" fill="#AB9191"/>
<rect x="756" y="2016" width="84" height="84" fill="#AB9191"/>
<rect x="756" y="756" width="84" height="84" fill="#AB9191"/>
<rect x="1596" y="1680" width="84" height="84" fill="#AB9191"/>
<rect x="1596" y="2016" width="84" height="84" fill="#AB9191"/>
<rect x="1596" y="756" width="84" height="84" fill="#AB9191"/>
<rect x="1596" y="1596" width="84" height="84" fill="#AB9191"/>
<rect x="1596" y="1932" width="84" height="84" fill="#AB9191"/>
<rect x="1596" y="672" width="84" height="84" fill="#AB9191"/>
<rect x="1596" y="1512" width="84" height="84" fill="#AB9191"/>
<rect x="1596" y="1848" width="84" height="84" fill="#AB9191"/>
<rect x="1596" y="588" width="84" height="84" fill="#AB9191"/>
<rect x="1596" y="2100" width="84" height="84" fill="#AB9191"/>
<rect x="1596" y="840" width="84" height="84" fill="#AB9191"/>
<rect x="756" y="2100" width="84" height="84" fill="#AB9191"/>
<rect x="756" y="840" width="84" height="84" fill="#AB9191"/>
<rect x="840" y="2184" width="84" height="84" fill="#AB9191"/>
<rect x="840" y="924" width="84" height="84" fill="#AB9191"/>
<rect x="1596" y="2184" width="84" height="84" fill="#AB9191"/>
<rect x="1596" y="924" width="84" height="84" fill="#AB9191"/>
<rect x="1512" y="2268" width="84" height="84" fill="#AB9191"/>
<rect x="1512" y="1008" width="84" height="84" fill="#AB9191"/>
<rect x="924" y="2268" width="84" height="84" fill="#AB9191"/>
<rect x="504" y="2520" width="84" height="84" fill="#AB9191"/>
<rect x="1428" y="2520" width="84" height="84" fill="#AB9191"/>
<rect x="1764" y="1344" width="84" height="84" fill="#AB9191"/>
<rect x="420" y="1344" width="84" height="84" fill="#AB9191"/>
<rect x="924" y="1008" width="84" height="84" fill="#AB9191"/>
<rect x="924" y="2352" width="84" height="84" fill="#AB9191"/>
<rect x="504" y="2604" width="84" height="84" fill="#AB9191"/>
<rect x="1428" y="2604" width="84" height="84" fill="#AB9191"/>
<rect x="1764" y="1428" width="84" height="84" fill="#AB9191"/>
<rect x="420" y="1428" width="84" height="84" fill="#AB9191"/>
<rect x="924" y="1092" width="84" height="84" fill="#AB9191"/>
<rect x="1596" y="1428" width="84" height="84" fill="#AB9191"/>
<rect x="1596" y="1764" width="84" height="84" fill="#AB9191"/>
<rect x="1596" y="504" width="84" height="84" fill="#AB9191"/>
<rect x="1512" y="252" width="84" height="84" fill="#AB9191"/>
<rect x="1512" y="1260" width="84" height="84" fill="#AB9191"/>
<rect x="1512" y="1176" width="84" height="84" fill="#AB9191"/>
<rect x="1512" y="336" width="84" height="84" fill="#AB9191"/>
<rect x="1596" y="252" width="84" height="84" fill="#AB9191"/>
<rect x="1596" y="1260" width="84" height="84" fill="#AB9191"/>
<rect x="1596" y="336" width="84" height="84" fill="#AB9191"/>
<rect x="588" width="84" height="84" fill="#AB9191"/>
<rect x="1428" width="84" height="84" fill="#AB9191"/>
<rect x="672" width="84" height="84" fill="#AB9191"/>
<rect x="672" y="84" width="84" height="84" fill="#006DB9"/>
<rect x="588" y="84" width="84" height="84" fill="#006DB9"/>
<rect x="588" y="168" width="84" height="84" fill="#006DB9"/>
<rect x="1596" y="168" width="84" height="84" fill="#BD1A8F"/>
<rect x="1596" y="84" width="84" height="84" fill="#BD1A8F"/>
<rect x="1512" y="84" width="84" height="84" fill="#BD1A8F"/>
<rect x="1344" y="1344" width="84" height="84" fill="#AB9191"/>
<rect x="1344" y="420" width="84" height="84" fill="black"/>
<rect x="756" y="1344" width="84" height="84" fill="#AB9191"/>
<rect x="756" y="420" width="84" height="84" fill="black"/>
<rect x="1428" y="1344" width="84" height="84" fill="#AB9191"/>
<rect x="1428" y="420" width="84" height="84" fill="black"/>
<rect x="840" y="1344" width="84" height="84" fill="#AB9191"/>
<rect x="840" y="420" width="84" height="84" fill="black"/>
<rect x="1428" y="1260" width="84" height="84" fill="#AB9191"/>
<rect x="1428" y="1176" width="84" height="84" fill="#AB9191"/>
<rect x="1428" y="336" width="84" height="84" fill="#F2E4E2"/>
<rect x="840" y="1260" width="84" height="84" fill="#AB9191"/>
<rect x="840" y="1176" width="84" height="84" fill="#AB9191"/>
<rect x="840" y="336" width="84" height="84" fill="black"/>
<rect x="1344" y="1260" width="84" height="84" fill="#AB9191"/>
<rect x="1344" y="1176" width="84" height="84" fill="#AB9191"/>
<rect x="1344" y="336" width="84" height="84" fill="black"/>
<rect x="756" y="1260" width="84" height="84" fill="#AB9191"/>
<rect x="756" y="1176" width="84" height="84" fill="#AB9191"/>
<rect x="756" y="336" width="84" height="84" fill="#F2E4E2"/>
<rect x="840" y="1344" width="84" height="84" fill="#AB9191"/>
<rect x="840" y="420" width="84" height="84" fill="black"/>
<rect x="840" y="1512" width="84" height="84" fill="#AB9191"/>
<rect x="840" y="1848" width="84" height="84" fill="#AB9191"/>
<rect x="840" y="588" width="84" height="84" fill="#F2E4E2"/>
<rect x="924" y="1428" width="84" height="84" fill="#AB9191"/>
<rect x="924" y="1764" width="84" height="84" fill="#AB9191"/>
<rect x="924" y="504" width="84" height="84" fill="#F2E4E2"/>
<rect x="924" y="1512" width="84" height="84" fill="#AB9191"/>
<rect x="924" y="1848" width="84" height="84" fill="#AB9191"/>
<rect x="924" y="588" width="84" height="84" fill="#F2E4E2"/>
<rect x="924" y="1596" width="84" height="84" fill="#AB9191"/>
<rect x="924" y="1932" width="84" height="84" fill="#AB9191"/>
<rect x="924" y="672" width="84" height="84" fill="#F2E4E2"/>
<rect x="924" y="1680" width="84" height="84" fill="#AB9191"/>
<rect x="924" y="2016" width="84" height="84" fill="#AB9191"/>
<rect x="924" y="756" width="84" height="84" fill="black"/>
<rect x="924" y="2100" width="84" height="84" fill="#AB9191"/>
<rect x="1428" y="2352" width="84" height="84" fill="#AB9191"/>
<rect x="924" y="840" width="84" height="84" fill="#F2E4E2"/>
<rect x="924" y="2184" width="84" height="84" fill="#AB9191"/>
<rect x="504" y="2436" width="84" height="84" fill="#AB9191"/>
<rect x="1428" y="2436" width="84" height="84" fill="#AB9191"/>
<rect x="1764" y="1260" width="84" height="84" fill="#AB9191"/>
<rect x="420" y="1260" width="84" height="84" fill="#AB9191"/>
<rect x="924" y="924" width="84" height="84" fill="#F2E4E2"/>
<rect x="1008" y="1428" width="84" height="84" fill="#AB9191"/>
<rect x="1008" y="1764" width="84" height="84" fill="#AB9191"/>
<rect x="1008" y="504" width="84" height="84" fill="#F2E4E2"/>
<rect x="1008" y="1512" width="84" height="84" fill="#AB9191"/>
<rect x="1008" y="1848" width="84" height="84" fill="#AB9191"/>
<rect x="1008" y="588" width="84" height="84" fill="black"/>
<rect x="1008" y="1596" width="84" height="84" fill="#AB9191"/>
<rect x="1008" y="1932" width="84" height="84" fill="#AB9191"/>
<rect x="1008" y="1680" width="84" height="84" fill="#AB9191"/>
<rect x="1008" y="2016" width="84" height="84" fill="#AB9191"/>
<rect x="1008" y="756" width="84" height="84" fill="#F2E4E2"/>
<rect x="1008" y="2100" width="84" height="84" fill="#AB9191"/>
<rect x="588" y="2352" width="84" height="84" fill="#AB9191"/>
<rect x="1512" y="2352" width="84" height="84" fill="#AB9191"/>
<rect x="1008" y="840" width="84" height="84" fill="black"/>
<rect x="1008" y="2184" width="84" height="84" fill="#AB9191"/>
<rect x="588" y="2436" width="84" height="84" fill="#AB9191"/>
<rect x="1512" y="2436" width="84" height="84" fill="#AB9191"/>
<rect x="1848" y="1260" width="84" height="84" fill="#AB9191"/>
<rect x="252" y="1260" width="84" height="84" fill="#AB9191"/>
<rect x="2016" y="1428" width="84" height="84" fill="#AB9191"/>
<rect x="168" y="1260" width="84" height="84" fill="#006DB9"/>
<rect x="1008" y="924" width="84" height="84" fill="#F2E4E2"/>
<rect x="1092" y="1428" width="84" height="84" fill="#AB9191"/>
<rect x="1092" y="1764" width="84" height="84" fill="#AB9191"/>
<rect x="1092" y="504" width="84" height="84" fill="#F2E4E2"/>
<rect x="1092" y="1512" width="84" height="84" fill="#AB9191"/>
<rect x="1092" y="1848" width="84" height="84" fill="#AB9191"/>
<rect x="1092" y="588" width="84" height="84" fill="black"/>
<rect x="1092" y="1596" width="84" height="84" fill="#AB9191"/>
<rect x="1092" y="1932" width="84" height="84" fill="#AB9191"/>
<rect x="1092" y="1680" width="84" height="84" fill="#AB9191"/>
<rect x="1092" y="2016" width="84" height="84" fill="#AB9191"/>
<rect x="1092" y="756" width="84" height="84" fill="black"/>
<rect x="1092" y="1680" width="84" height="84" fill="#AB9191"/>
<rect x="1092" y="2016" width="84" height="84" fill="#AB9191"/>
<rect x="1092" y="756" width="84" height="84" fill="black"/>
<rect x="1092" y="1680" width="84" height="84" fill="#AB9191"/>
<rect x="1092" y="2016" width="84" height="84" fill="#AB9191"/>
<rect x="1092" y="672" width="84" height="84" fill="black"/>
<rect x="1092" y="2100" width="84" height="84" fill="#AB9191"/>
<rect x="672" y="2352" width="84" height="84" fill="#AB9191"/>
<rect x="1596" y="2352" width="84" height="84" fill="#AB9191"/>
<rect x="1092" y="840" width="84" height="84" fill="black"/>
<rect x="1092" y="2100" width="84" height="84" fill="#AB9191"/>
<rect x="672" y="2352" width="84" height="84" fill="#AB9191"/>
<rect x="1596" y="2352" width="84" height="84" fill="#AB9191"/>
<rect x="1092" y="840" width="84" height="84" fill="black"/>
<rect x="1092" y="2184" width="84" height="84" fill="#AB9191"/>
<rect x="672" y="2436" width="84" height="84" fill="#AB9191"/>
<rect x="1596" y="2436" width="84" height="84" fill="#AB9191"/>
<rect x="1932" y="1260" width="84" height="84" fill="#AB9191"/>
<rect x="336" y="1260" width="84" height="84" fill="#AB9191"/>
<rect x="2016" y="1260" width="84" height="84" fill="#BD1A8F"/>
<rect x="252" y="1176" width="84" height="84" fill="#AB9191"/>
<rect x="2016" y="1176" width="84" height="84" fill="#AB9191"/>
<rect x="168" y="1176" width="84" height="84" fill="#AB9191"/>
<rect x="2100.5" y="1260.5" width="83" height="83" fill="#AB9191" stroke="black"/>
<rect x="84" y="1260" width="84" height="84" fill="#AB9191"/>
<rect x="2100.5" y="1176.5" width="83" height="83" fill="#AB9191" stroke="black"/>
<rect x="84" y="1176" width="84" height="84" fill="#AB9191"/>
<rect x="1092" y="924" width="84" height="84" fill="#F2E4E2"/>
<rect x="1176" y="1428" width="84" height="84" fill="#AB9191"/>
<rect x="1176" y="1764" width="84" height="84" fill="#AB9191"/>
<rect x="1176" y="504" width="84" height="84" fill="#F2E4E2"/>
<rect x="1176" y="1512" width="84" height="84" fill="#AB9191"/>
<rect x="1176" y="1848" width="84" height="84" fill="#AB9191"/>
<rect x="1176" y="588" width="84" height="84" fill="black"/>
<rect x="1176" y="1596" width="84" height="84" fill="#AB9191"/>
<rect x="1176" y="1932" width="84" height="84" fill="#AB9191"/>
<rect x="1176" y="1680" width="84" height="84" fill="#AB9191"/>
<rect x="1176" y="2016" width="84" height="84" fill="#AB9191"/>
<rect x="1176" y="756" width="84" height="84" fill="#F2E4E2"/>
<rect x="1176" y="2100" width="84" height="84" fill="#AB9191"/>
<rect x="756" y="2352" width="84" height="84" fill="#AB9191"/>
<rect x="1176" y="840" width="84" height="84" fill="black"/>
<rect x="1176" y="2184" width="84" height="84" fill="#AB9191"/>
<rect x="756" y="2436" width="84" height="84" fill="#AB9191"/>
<rect x="1680" y="2436" width="84" height="84" fill="#AB9191"/>
<rect x="924" y="1680" width="84" height="84" fill="#F2E4E2"/>
<rect x="924" y="1764" width="84" height="84" fill="#F2E4E2"/>
<rect x="1008" y="1680" width="84" height="84" fill="#F2E4E2"/>
<rect x="1260" y="1680" width="84" height="84" fill="#F2E4E2"/>
<rect x="1008" y="1764" width="84" height="84" fill="#F2E4E2"/>
<rect x="1260" y="1764" width="84" height="84" fill="#F2E4E2"/>
<rect x="1176" y="1680" width="84" height="84" fill="#F2E4E2"/>
<rect x="1092" y="1680" width="84" height="84" fill="#F2E4E2"/>
<rect x="1344" y="1680" width="84" height="84" fill="#F2E4E2"/>
<rect x="1176" y="1764" width="84" height="84" fill="#F2E4E2"/>
<rect x="1092" y="1764" width="84" height="84" fill="#F2E4E2"/>
<rect x="1344" y="1764" width="84" height="84" fill="#F2E4E2"/>
<rect x="840" y="1680" width="84" height="84" fill="#F2E4E2"/>
<rect x="840" y="1764" width="84" height="84" fill="#F2E4E2"/>
<rect x="840" y="1596" width="84" height="84" fill="#F2E4E2"/>
<rect x="924" y="1596" width="84" height="84" fill="#F2E4E2"/>
<rect x="924" y="1512" width="84" height="84" fill="#F2E4E2"/>
<rect x="924" y="1848" width="84" height="84" fill="#F2E4E2"/>
<rect x="1008" y="1596" width="84" height="84" fill="#F2E4E2"/>
<rect x="1260" y="1596" width="84" height="84" fill="#F2E4E2"/>
<rect x="1008" y="1512" width="84" height="84" fill="#F2E4E2"/>
<rect x="1008" y="1428" width="84" height="84" fill="#F2E4E2"/>
<rect x="1008" y="1932" width="84" height="84" fill="#F2E4E2"/>
<rect x="1260" y="1512" width="84" height="84" fill="#F2E4E2"/>
<rect x="1176" y="1512" width="84" height="84" fill="#F2E4E2"/>
<rect x="1092" y="1512" width="84" height="84" fill="#F2E4E2"/>
<rect x="1176" y="1428" width="84" height="84" fill="#F2E4E2"/>
<rect x="1092" y="1428" width="84" height="84" fill="#F2E4E2"/>
<rect x="1092" y="1344" width="84" height="84" fill="#F2E4E2"/>
<rect x="1092" y="2016" width="84" height="84" fill="#F2E4E2"/>
<rect x="1176" y="1932" width="84" height="84" fill="#F2E4E2"/>
<rect x="1092" y="1932" width="84" height="84" fill="#F2E4E2"/>
<rect x="1008" y="1848" width="84" height="84" fill="#F2E4E2"/>
<rect x="1260" y="1848" width="84" height="84" fill="#F2E4E2"/>
<rect x="1176" y="1848" width="84" height="84" fill="#F2E4E2"/>
<rect x="1092" y="1848" width="84" height="84" fill="#F2E4E2"/>
<rect x="1176" y="1596" width="84" height="84" fill="#F2E4E2"/>
<rect x="1092" y="1596" width="84" height="84" fill="#F2E4E2"/>
<rect x="1344" y="1596" width="84" height="84" fill="#F2E4E2"/>
<rect x="168" y="1428" width="84" height="84" fill="#AB9191"/>
<rect x="2100.5" y="1260.5" width="83" height="83" fill="#BD1A8F" stroke="black"/>
<rect x="84" y="1260" width="84" height="84" fill="#006DB9"/>
<rect x="2100.5" y="1176.5" width="83" height="83" fill="#AB9191" stroke="black"/>
<rect x="84" y="1176" width="84" height="84" fill="#AB9191"/>
<rect x="2184.5" y="1260.5" width="83" height="83" fill="#AB9191" stroke="black"/>
<rect y="1260" width="84" height="84" fill="#AB9191"/>
<rect x="1176" y="924" width="84" height="84" fill="#F2E4E2"/>
<rect x="1260" y="1428" width="84" height="84" fill="#AB9191"/>
<rect x="1260" y="504" width="84" height="84" fill="#F2E4E2"/>
<rect x="1260" y="588" width="84" height="84" fill="#F2E4E2"/>
<rect x="1260" y="1932" width="84" height="84" fill="#AB9191"/>
<rect x="1260" y="672" width="84" height="84" fill="#F2E4E2"/>
<rect x="1176" y="672" width="84" height="84" fill="#F2E4E2"/>
<rect x="1008" y="672" width="84" height="84" fill="#F2E4E2"/>
<rect x="1260" y="2016" width="84" height="84" fill="#AB9191"/>
<rect x="1260" y="756" width="84" height="84" fill="black"/>
<rect x="1260" y="2100" width="84" height="84" fill="#AB9191"/>
<rect x="1260" y="840" width="84" height="84" fill="#F2E4E2"/>
<rect x="1260" y="2184" width="84" height="84" fill="#AB9191"/>
<rect x="1260" y="924" width="84" height="84" fill="#F2E4E2"/>
<rect x="1344" y="1512" width="84" height="84" fill="#AB9191"/>
<rect x="1344" y="1848" width="84" height="84" fill="#AB9191"/>
<rect x="1344" y="588" width="84" height="84" fill="#F2E4E2"/>
<rect x="840" y="1932" width="84" height="84" fill="#AB9191"/>
<rect x="840" y="672" width="84" height="84" fill="#F2E4E2"/>
<rect x="1344" y="1932" width="84" height="84" fill="#AB9191"/>
<rect x="1344" y="672" width="84" height="84" fill="#F2E4E2"/>
<rect x="840" y="2016" width="84" height="84" fill="#AB9191"/>
<rect x="840" y="756" width="84" height="84" fill="#F2E4E2"/>
<rect x="1344" y="2016" width="84" height="84" fill="#AB9191"/>
<rect x="1344" y="756" width="84" height="84" fill="#F2E4E2"/>
<rect x="840" y="2100" width="84" height="84" fill="#AB9191"/>
<rect x="840" y="840" width="84" height="84" fill="#F2E4E2"/>
<rect x="1344" y="2100" width="84" height="84" fill="#AB9191"/>
<rect x="1344" y="840" width="84" height="84" fill="#F2E4E2"/>
<rect x="1512" width="84" height="84" fill="#AB9191"/>
<rect x="756" y="84" width="84" height="84" fill="#AB9191"/>
<rect x="1344" y="84" width="84" height="84" fill="#AB9191"/>
<rect x="840" y="84" width="84" height="84" fill="#AB9191"/>
<rect x="1428" y="84" width="84" height="84" fill="#AB9191"/>
<rect x="756" width="84" height="84" fill="#AB9191"/>
<rect x="1596" width="84" height="84" fill="#AB9191"/>
<rect x="504" y="84" width="84" height="84" fill="#AB9191"/>
<rect x="1680" y="84" width="84" height="84" fill="#AB9191"/>
</g>
<defs>
<clipPath id="clip0_105_7881">
<rect width="2268" height="2688" fill="white"/>
</clipPath>
</defs>
</svg>
