<svg width="239" height="74" viewBox="0 0 239 74" fill="none" xmlns="http://www.w3.org/2000/svg">
<rect width="239" height="74" rx="12" fill="#FFD79B"/>
<path d="M29.43 47.15C28.25 47.15 27.08 46.95 25.92 46.55C24.76 46.15 23.82 45.55 23.1 44.75C22.88 44.51 22.79 44.24 22.83 43.94C22.87 43.64 23.02 43.38 23.28 43.16C23.56 42.96 23.85 42.88 24.15 42.92C24.45 42.96 24.7 43.09 24.9 43.31C25.38 43.87 26.01 44.3 26.79 44.6C27.59 44.9 28.47 45.05 29.43 45.05C30.91 45.05 31.98 44.8 32.64 44.3C33.3 43.78 33.64 43.16 33.66 42.44C33.66 41.72 33.32 41.13 32.64 40.67C31.96 40.19 30.84 39.82 29.28 39.56C27.26 39.24 25.78 38.68 24.84 37.88C23.9 37.08 23.43 36.13 23.43 35.03C23.43 34.01 23.7 33.16 24.24 32.48C24.78 31.8 25.5 31.29 26.4 30.95C27.3 30.61 28.29 30.44 29.37 30.44C30.71 30.44 31.86 30.67 32.82 31.13C33.8 31.59 34.59 32.21 35.19 32.99C35.39 33.25 35.47 33.52 35.43 33.8C35.39 34.08 35.23 34.31 34.95 34.49C34.71 34.63 34.43 34.68 34.11 34.64C33.81 34.58 33.55 34.43 33.33 34.19C32.83 33.61 32.25 33.19 31.59 32.93C30.93 32.65 30.17 32.51 29.31 32.51C28.21 32.51 27.33 32.74 26.67 33.2C26.01 33.64 25.68 34.2 25.68 34.88C25.68 35.34 25.8 35.74 26.04 36.08C26.3 36.42 26.73 36.72 27.33 36.98C27.95 37.24 28.81 37.46 29.91 37.64C31.41 37.88 32.59 38.24 33.45 38.72C34.33 39.18 34.95 39.73 35.31 40.37C35.69 40.99 35.88 41.67 35.88 42.41C35.88 43.35 35.6 44.18 35.04 44.9C34.5 45.6 33.74 46.15 32.76 46.55C31.8 46.95 30.69 47.15 29.43 47.15ZM46.2919 47C45.2319 47 44.2819 46.75 43.4419 46.25C42.6219 45.75 41.9719 45.07 41.4919 44.21C41.0119 43.33 40.7719 42.33 40.7719 41.21V26.54C40.7719 26.2 40.8719 25.92 41.0719 25.7C41.2919 25.48 41.5719 25.37 41.9119 25.37C42.2519 25.37 42.5319 25.48 42.7519 25.7C42.9719 25.92 43.0819 26.2 43.0819 26.54V41.21C43.0819 42.23 43.3819 43.07 43.9819 43.73C44.5819 44.37 45.3519 44.69 46.2919 44.69H47.1019C47.4219 44.69 47.6819 44.8 47.8819 45.02C48.0819 45.24 48.1819 45.52 48.1819 45.86C48.1819 46.2 48.0619 46.48 47.8219 46.7C47.5819 46.9 47.2819 47 46.9219 47H46.2919ZM38.8219 33.2C38.5219 33.2 38.2719 33.11 38.0719 32.93C37.8719 32.73 37.7719 32.49 37.7719 32.21C37.7719 31.91 37.8719 31.67 38.0719 31.49C38.2719 31.29 38.5219 31.19 38.8219 31.19H46.4719C46.7719 31.19 47.0219 31.29 47.2219 31.49C47.4219 31.67 47.5219 31.91 47.5219 32.21C47.5219 32.49 47.4219 32.73 47.2219 32.93C47.0219 33.11 46.7719 33.2 46.4719 33.2H38.8219ZM59.1722 47.15C57.6322 47.15 56.2522 46.79 55.0322 46.07C53.8122 45.33 52.8422 44.33 52.1222 43.07C51.4222 41.81 51.0722 40.39 51.0722 38.81C51.0722 37.21 51.4322 35.78 52.1522 34.52C52.8922 33.26 53.8922 32.27 55.1522 31.55C56.4122 30.81 57.8322 30.44 59.4122 30.44C60.9922 30.44 62.4022 30.81 63.6422 31.55C64.9022 32.27 65.8922 33.26 66.6122 34.52C67.3522 35.78 67.7322 37.21 67.7522 38.81L66.8222 39.53C66.8222 40.97 66.4822 42.27 65.8022 43.43C65.1422 44.57 64.2322 45.48 63.0722 46.16C61.9322 46.82 60.6322 47.15 59.1722 47.15ZM59.4122 45.05C60.5722 45.05 61.6022 44.78 62.5022 44.24C63.4222 43.7 64.1422 42.96 64.6622 42.02C65.2022 41.06 65.4722 39.99 65.4722 38.81C65.4722 37.61 65.2022 36.54 64.6622 35.6C64.1422 34.66 63.4222 33.92 62.5022 33.38C61.6022 32.82 60.5722 32.54 59.4122 32.54C58.2722 32.54 57.2422 32.82 56.3222 33.38C55.4022 33.92 54.6722 34.66 54.1322 35.6C53.5922 36.54 53.3222 37.61 53.3222 38.81C53.3222 39.99 53.5922 41.06 54.1322 42.02C54.6722 42.96 55.4022 43.7 56.3222 44.24C57.2422 44.78 58.2722 45.05 59.4122 45.05ZM66.5822 47C66.2422 47 65.9622 46.9 65.7422 46.7C65.5222 46.48 65.4122 46.2 65.4122 45.86V40.73L65.9822 38.36L67.7522 38.81V45.86C67.7522 46.2 67.6422 46.48 67.4222 46.7C67.2022 46.9 66.9222 47 66.5822 47ZM73.2049 36.89C73.2649 35.65 73.5849 34.54 74.1649 33.56C74.7649 32.58 75.5349 31.81 76.4749 31.25C77.4349 30.69 78.4949 30.41 79.6549 30.41C80.5749 30.41 81.2849 30.54 81.7849 30.8C82.2849 31.06 82.4749 31.44 82.3549 31.94C82.2749 32.24 82.1349 32.44 81.9349 32.54C81.7549 32.64 81.5249 32.68 81.2449 32.66C80.9849 32.64 80.6849 32.62 80.3449 32.6C79.2249 32.5 78.2249 32.62 77.3449 32.96C76.4849 33.28 75.7949 33.78 75.2749 34.46C74.7749 35.14 74.5249 35.95 74.5249 36.89H73.2049ZM73.3849 47C73.0249 47 72.7449 46.9 72.5449 46.7C72.3449 46.5 72.2449 46.22 72.2449 45.86V31.73C72.2449 31.37 72.3449 31.09 72.5449 30.89C72.7449 30.69 73.0249 30.59 73.3849 30.59C73.7449 30.59 74.0249 30.69 74.2249 30.89C74.4249 31.09 74.5249 31.37 74.5249 31.73V45.86C74.5249 46.22 74.4249 46.5 74.2249 46.7C74.0249 46.9 73.7449 47 73.3849 47ZM92.4052 47C91.3452 47 90.3952 46.75 89.5552 46.25C88.7352 45.75 88.0852 45.07 87.6052 44.21C87.1252 43.33 86.8852 42.33 86.8852 41.21V26.54C86.8852 26.2 86.9852 25.92 87.1852 25.7C87.4052 25.48 87.6852 25.37 88.0252 25.37C88.3652 25.37 88.6452 25.48 88.8652 25.7C89.0852 25.92 89.1952 26.2 89.1952 26.54V41.21C89.1952 42.23 89.4952 43.07 90.0952 43.73C90.6952 44.37 91.4652 44.69 92.4052 44.69H93.2152C93.5352 44.69 93.7952 44.8 93.9952 45.02C94.1952 45.24 94.2952 45.52 94.2952 45.86C94.2952 46.2 94.1752 46.48 93.9352 46.7C93.6952 46.9 93.3952 47 93.0352 47H92.4052ZM84.9352 33.2C84.6352 33.2 84.3852 33.11 84.1852 32.93C83.9852 32.73 83.8852 32.49 83.8852 32.21C83.8852 31.91 83.9852 31.67 84.1852 31.49C84.3852 31.29 84.6352 31.19 84.9352 31.19H92.5852C92.8852 31.19 93.1352 31.29 93.3352 31.49C93.5352 31.67 93.6352 31.91 93.6352 32.21C93.6352 32.49 93.5352 32.73 93.3352 32.93C93.1352 33.11 92.8852 33.2 92.5852 33.2H84.9352ZM105.285 47.15C103.745 47.15 102.365 46.79 101.145 46.07C99.9255 45.33 98.9555 44.33 98.2355 43.07C97.5355 41.81 97.1855 40.39 97.1855 38.81C97.1855 37.21 97.5455 35.78 98.2655 34.52C99.0055 33.26 100.005 32.27 101.265 31.55C102.525 30.81 103.945 30.44 105.525 30.44C107.105 30.44 108.515 30.81 109.755 31.55C111.015 32.27 112.005 33.26 112.725 34.52C113.465 35.78 113.845 37.21 113.865 38.81L112.935 39.53C112.935 40.97 112.595 42.27 111.915 43.43C111.255 44.57 110.345 45.48 109.185 46.16C108.045 46.82 106.745 47.15 105.285 47.15ZM105.525 45.05C106.685 45.05 107.715 44.78 108.615 44.24C109.535 43.7 110.255 42.96 110.775 42.02C111.315 41.06 111.585 39.99 111.585 38.81C111.585 37.61 111.315 36.54 110.775 35.6C110.255 34.66 109.535 33.92 108.615 33.38C107.715 32.82 106.685 32.54 105.525 32.54C104.385 32.54 103.355 32.82 102.435 33.38C101.515 33.92 100.785 34.66 100.245 35.6C99.7055 36.54 99.4355 37.61 99.4355 38.81C99.4355 39.99 99.7055 41.06 100.245 42.02C100.785 42.96 101.515 43.7 102.435 44.24C103.355 44.78 104.385 45.05 105.525 45.05ZM112.695 47C112.355 47 112.075 46.9 111.855 46.7C111.635 46.48 111.525 46.2 111.525 45.86V40.73L112.095 38.36L113.865 38.81V45.86C113.865 46.2 113.755 46.48 113.535 46.7C113.315 46.9 113.035 47 112.695 47ZM132.877 47.15C131.697 47.15 130.527 46.95 129.367 46.55C128.207 46.15 127.267 45.55 126.547 44.75C126.327 44.51 126.237 44.24 126.277 43.94C126.317 43.64 126.467 43.38 126.727 43.16C127.007 42.96 127.297 42.88 127.597 42.92C127.897 42.96 128.147 43.09 128.347 43.31C128.827 43.87 129.457 44.3 130.237 44.6C131.037 44.9 131.917 45.05 132.877 45.05C134.357 45.05 135.427 44.8 136.087 44.3C136.747 43.78 137.087 43.16 137.107 42.44C137.107 41.72 136.767 41.13 136.087 40.67C135.407 40.19 134.287 39.82 132.727 39.56C130.707 39.24 129.227 38.68 128.287 37.88C127.347 37.08 126.877 36.13 126.877 35.03C126.877 34.01 127.147 33.16 127.687 32.48C128.227 31.8 128.947 31.29 129.847 30.95C130.747 30.61 131.737 30.44 132.817 30.44C134.157 30.44 135.307 30.67 136.267 31.13C137.247 31.59 138.037 32.21 138.637 32.99C138.837 33.25 138.917 33.52 138.877 33.8C138.837 34.08 138.677 34.31 138.397 34.49C138.157 34.63 137.877 34.68 137.557 34.64C137.257 34.58 136.997 34.43 136.777 34.19C136.277 33.61 135.697 33.19 135.037 32.93C134.377 32.65 133.617 32.51 132.757 32.51C131.657 32.51 130.777 32.74 130.117 33.2C129.457 33.64 129.127 34.2 129.127 34.88C129.127 35.34 129.247 35.74 129.487 36.08C129.747 36.42 130.177 36.72 130.777 36.98C131.397 37.24 132.257 37.46 133.357 37.64C134.857 37.88 136.037 38.24 136.897 38.72C137.777 39.18 138.397 39.73 138.757 40.37C139.137 40.99 139.327 41.67 139.327 42.41C139.327 43.35 139.047 44.18 138.487 44.9C137.947 45.6 137.187 46.15 136.207 46.55C135.247 46.95 134.137 47.15 132.877 47.15ZM144.489 54.02C144.129 54.02 143.839 53.91 143.619 53.69C143.419 53.49 143.319 53.21 143.319 52.85V38.69C143.339 37.13 143.709 35.73 144.429 34.49C145.169 33.23 146.159 32.24 147.399 31.52C148.659 30.8 150.069 30.44 151.629 30.44C153.229 30.44 154.659 30.81 155.919 31.55C157.179 32.27 158.169 33.26 158.889 34.52C159.629 35.78 159.999 37.21 159.999 38.81C159.999 40.39 159.639 41.81 158.919 43.07C158.219 44.33 157.259 45.33 156.039 46.07C154.819 46.79 153.439 47.15 151.899 47.15C150.559 47.15 149.339 46.87 148.239 46.31C147.159 45.73 146.289 44.97 145.629 44.03V52.85C145.629 53.21 145.519 53.49 145.299 53.69C145.099 53.91 144.829 54.02 144.489 54.02ZM151.629 45.05C152.789 45.05 153.829 44.78 154.749 44.24C155.669 43.7 156.389 42.96 156.909 42.02C157.449 41.06 157.719 39.99 157.719 38.81C157.719 37.61 157.449 36.54 156.909 35.6C156.389 34.66 155.669 33.92 154.749 33.38C153.829 32.82 152.789 32.54 151.629 32.54C150.489 32.54 149.459 32.82 148.539 33.38C147.619 33.92 146.899 34.66 146.379 35.6C145.859 36.54 145.599 37.61 145.599 38.81C145.599 39.99 145.859 41.06 146.379 42.02C146.899 42.96 147.619 43.7 148.539 44.24C149.459 44.78 150.489 45.05 151.629 45.05ZM171.97 47.15C170.35 47.15 168.91 46.8 167.65 46.1C166.41 45.38 165.43 44.39 164.71 43.13C164.01 41.87 163.66 40.43 163.66 38.81C163.66 37.17 163.99 35.73 164.65 34.49C165.33 33.23 166.26 32.24 167.44 31.52C168.62 30.8 169.98 30.44 171.52 30.44C173.04 30.44 174.36 30.79 175.48 31.49C176.62 32.17 177.5 33.12 178.12 34.34C178.74 35.56 179.05 36.95 179.05 38.51C179.05 38.83 178.95 39.09 178.75 39.29C178.55 39.47 178.29 39.56 177.97 39.56H165.22V37.64H178.21L176.92 38.57C176.94 37.41 176.73 36.37 176.29 35.45C175.85 34.53 175.22 33.81 174.4 33.29C173.6 32.77 172.64 32.51 171.52 32.51C170.38 32.51 169.38 32.78 168.52 33.32C167.66 33.86 166.99 34.61 166.51 35.57C166.05 36.51 165.82 37.59 165.82 38.81C165.82 40.03 166.08 41.11 166.6 42.05C167.14 42.99 167.87 43.73 168.79 44.27C169.71 44.81 170.77 45.08 171.97 45.08C172.69 45.08 173.41 44.96 174.13 44.72C174.87 44.46 175.46 44.14 175.9 43.76C176.12 43.58 176.37 43.49 176.65 43.49C176.93 43.47 177.17 43.54 177.37 43.7C177.63 43.94 177.76 44.2 177.76 44.48C177.78 44.76 177.67 45 177.43 45.2C176.77 45.76 175.93 46.23 174.91 46.61C173.89 46.97 172.91 47.15 171.97 47.15ZM186.498 47C185.698 47 184.978 46.78 184.338 46.34C183.718 45.9 183.228 45.29 182.868 44.51C182.528 43.73 182.358 42.83 182.358 41.81V24.71C182.358 24.37 182.458 24.1 182.658 23.9C182.878 23.68 183.158 23.57 183.498 23.57C183.838 23.57 184.108 23.68 184.308 23.9C184.528 24.1 184.638 24.37 184.638 24.71V41.81C184.638 42.67 184.808 43.37 185.148 43.91C185.508 44.45 185.958 44.72 186.498 44.72H187.248C187.548 44.72 187.788 44.83 187.968 45.05C188.148 45.25 188.238 45.52 188.238 45.86C188.238 46.2 188.108 46.48 187.848 46.7C187.608 46.9 187.288 47 186.888 47H186.498ZM197.956 47.15C196.336 47.15 194.896 46.8 193.636 46.1C192.396 45.38 191.416 44.39 190.696 43.13C189.996 41.87 189.646 40.43 189.646 38.81C189.646 37.17 189.976 35.73 190.636 34.49C191.316 33.23 192.246 32.24 193.426 31.52C194.606 30.8 195.966 30.44 197.506 30.44C199.026 30.44 200.346 30.79 201.466 31.49C202.606 32.17 203.486 33.12 204.106 34.34C204.726 35.56 205.036 36.95 205.036 38.51C205.036 38.83 204.936 39.09 204.736 39.29C204.536 39.47 204.276 39.56 203.956 39.56H191.206V37.64H204.196L202.906 38.57C202.926 37.41 202.716 36.37 202.276 35.45C201.836 34.53 201.206 33.81 200.386 33.29C199.586 32.77 198.626 32.51 197.506 32.51C196.366 32.51 195.366 32.78 194.506 33.32C193.646 33.86 192.976 34.61 192.496 35.57C192.036 36.51 191.806 37.59 191.806 38.81C191.806 40.03 192.066 41.11 192.586 42.05C193.126 42.99 193.856 43.73 194.776 44.27C195.696 44.81 196.756 45.08 197.956 45.08C198.676 45.08 199.396 44.96 200.116 44.72C200.856 44.46 201.446 44.14 201.886 43.76C202.106 43.58 202.356 43.49 202.636 43.49C202.916 43.47 203.156 43.54 203.356 43.7C203.616 43.94 203.746 44.2 203.746 44.48C203.766 44.76 203.656 45 203.416 45.2C202.756 45.76 201.916 46.23 200.896 46.61C199.876 46.97 198.896 47.15 197.956 47.15ZM215.364 47C214.304 47 213.354 46.75 212.514 46.25C211.694 45.75 211.044 45.07 210.564 44.21C210.084 43.33 209.844 42.33 209.844 41.21V26.54C209.844 26.2 209.944 25.92 210.144 25.7C210.364 25.48 210.644 25.37 210.984 25.37C211.324 25.37 211.604 25.48 211.824 25.7C212.044 25.92 212.154 26.2 212.154 26.54V41.21C212.154 42.23 212.454 43.07 213.054 43.73C213.654 44.37 214.424 44.69 215.364 44.69H216.174C216.494 44.69 216.754 44.8 216.954 45.02C217.154 45.24 217.254 45.52 217.254 45.86C217.254 46.2 217.134 46.48 216.894 46.7C216.654 46.9 216.354 47 215.994 47H215.364ZM207.894 33.2C207.594 33.2 207.344 33.11 207.144 32.93C206.944 32.73 206.844 32.49 206.844 32.21C206.844 31.91 206.944 31.67 207.144 31.49C207.344 31.29 207.594 31.19 207.894 31.19H215.544C215.844 31.19 216.094 31.29 216.294 31.49C216.494 31.67 216.594 31.91 216.594 32.21C216.594 32.49 216.494 32.73 216.294 32.93C216.094 33.11 215.844 33.2 215.544 33.2H207.894Z" fill="#FF8642"/>
</svg>
